#!OML:ASF H:\Punching\Project 1\Capture day 1\Session 1\female.ASF
:FULLY-SPECIFIED
:DEGREES
1285
root -2.06318 11.8103 3.97047 18.8459 19.9048 1.74388
lowerback 20.3827 2.86445 5.47541
upperback -0.0245327 5.44813 3.04852
thorax -11.2842 2.34342 -1.33225
lowerneck -11.3796 -3.4866 5.20178
upperneck 13.5082 -5.69024 0.598901
head 5.83777 -2.42993 -1.11941
rclavicle 2.62396e-014 3.02153e-014
rhumerus 26.8243 8.54437 -71.6143
rradius 137.184
rwrist -49.464
rhand -14.8879 -8.03972
rfingers 7.12502
rthumb 11.2729 -37.7168
lclavicle 2.62396e-014 3.02153e-014
lhumerus 14.5531 -37.1601 79.4762
lradius 142.262
lwrist 24.7548
lhand -10.8848 27.162
lfingers 7.12502
lthumb 15.1315 56.5889
rfemur -80.5451 -12.2994 12.0234
rtibia 91.1252
rfoot -23.6506 -6.15354
rtoes -8.98568
lfemur -53.4724 1.66871 9.4487
ltibia 91.8726
lfoot -26.4604 -23.2607
ltoes -40.4575
1286
root -2.03396 11.8134 3.9716 18.7848 18.5626 1.34986
lowerback 20.1826 2.7474 5.31071
upperback -0.0455182 5.22072 2.89184
thorax -11.2042 2.24402 -1.33675
lowerneck -11.4521 -2.90606 5.80598
upperneck 13.9961 -4.97718 0.235206
head 5.99752 -2.06745 -1.28369
rclavicle 3.18055e-015 -6.99722e-014
rhumerus 26.5327 9.82362 -72.6127
rradius 137.243
rwrist -49.2181
rhand -14.6542 -7.92036
rfingers 7.12502
rthumb 11.4983 -37.585
lclavicle 3.18055e-015 -6.99722e-014
lhumerus 14.7323 -37.4653 79.3326
lradius 141.879
lwrist 24.4478
lhand -10.8025 27.2519
lfingers 7.12502
lthumb 15.2107 56.6727
rfemur -80.9193 -11.6083 12.4645
rtibia 90.7181
rfoot -23.4476 -5.46452
rtoes -8.73409
lfemur -52.7992 1.8636 9.49088
ltibia 92.2265
lfoot -26.8297 -22.2432
ltoes -41.2253
1287
root -1.99997 11.8179 3.97519 18.7118 17.111 0.89312
lowerback 19.9838 2.58922 5.16073
upperback -0.0954694 4.9455 2.73322
thorax -11.1588 2.11965 -1.33957
lowerneck -11.4712 -2.26489 6.48706
upperneck 14.5293 -4.18337 -0.181545
head 6.17035 -1.66521 -1.46984
rclavicle 1.43125e-014 2.54444e-014
rhumerus 26.113 11.0948 -73.6238
rradius 137.29
rwrist -48.9551
rhand -14.4219 -7.81211
rfingers 7.12502
rthumb 11.7222 -37.4641
lclavicle 1.43125e-014 2.54444e-014
lhumerus 14.8244 -37.6777 79.2352
lradius 141.422
lwrist 24.1673
lhand -10.7364 27.4517
lfingers 7.12502
lthumb 15.2744 56.8677
rfemur -81.2728 -10.8744 12.9849
rtibia 90.256
rfoot -23.2398 -4.70252
rtoes -8.48215
lfemur -52.0463 2.10276 9.55024
ltibia 92.6036
lfoot -27.1555 -21.1992
ltoes -41.9705
1288
root -1.96242 11.8232 3.98099 18.6219 15.5351 0.36345
lowerback 19.7836 2.41122 5.03373
upperback -0.160338 4.6506 2.5703
thorax -11.1283 1.98378 -1.35551
lowerneck -11.4098 -1.57983 7.23148
upperneck 15.0694 -3.32906 -0.61942
head 6.3426 -1.23219 -1.66642
rclavicle -5.1684e-014 9.54166e-015
rhumerus 25.5735 12.3093 -74.6229
rradius 137.306
rwrist -48.6538
rhand -14.2442 -7.71757
rfingers 7.12502
rthumb 11.8936 -37.3598
lclavicle -5.1684e-014 9.54166e-015
lhumerus 14.8528 -37.8235 79.1658
lradius 140.912
lwrist 23.9411
lhand -10.7875 27.7476
lfingers 7.12502
lthumb 15.2252 57.1674
rfemur -81.601 -10.0586 13.5903
rtibia 89.7377
rfoot -23.0187 -3.8889
rtoes -8.21223
lfemur -51.2025 2.42126 9.64272
ltibia 92.996
lfoot -27.4148 -20.1884
ltoes -42.6197
1289
root -1.92133 11.8286 3.98916 18.5253 13.8392 -0.221251
lowerback 19.5665 2.20399 4.89478
upperback -0.219569 4.31514 2.42118
thorax -11.0861 1.83048 -1.33818
lowerneck -11.3061 -0.833499 8.03028
upperneck 15.6245 -2.38706 -1.10107
head 6.52677 -0.757211 -1.87781
rclavicle -4.29375e-014 3.33958e-014
rhumerus 24.9796 13.5147 -75.5709
rradius 137.273
rwrist -48.3258
rhand -14.1475 -7.64041
rfingers 7.12502
rthumb 11.9869 -37.2772
lclavicle -4.29375e-014 3.33958e-014
lhumerus 14.8552 -37.8338 79.0885
lradius 140.364
lwrist 23.8174
lhand -11.0606 28.1338
lfingers 7.12502
lthumb 14.9621 57.5733
rfemur -81.9048 -9.17412 14.2634
rtibia 89.1729
rfoot -22.7763 -3.03342
rtoes -7.92387
lfemur -50.2658 2.81916 9.75076
ltibia 93.3981
lfoot -27.622 -19.209
ltoes -43.197
1290
root -1.87855 11.8324 3.99835 18.4376 12.0095 -0.8521
lowerback 19.3255 1.9821 4.71924
upperback -0.260755 3.95135 2.28311
thorax -11.0144 1.66732 -1.27995
lowerneck -11.1604 -0.0314741 8.88763
upperneck 16.1735 -1.3631 -1.628
head 6.71917 -0.24358 -2.1052
rclavicle 6.83819e-014 -1.43125e-014
rhumerus 24.38 14.6875 -76.4372
rradius 137.183
rwrist -48.014
rhand -14.1405 -7.57981
rfingers 7.12502
rthumb 11.9936 -37.2162
lclavicle 6.83819e-014 -1.43125e-014
lhumerus 14.8767 -37.6826 78.9681
lradius 139.775
lwrist 23.8322
lhand -11.5929 28.5845
lfingers 7.12502
lthumb 14.4492 58.0615
rfemur -82.2111 -8.18911 14.9891
rtibia 88.5698
rfoot -22.4916 -2.16271
rtoes -7.62543
lfemur -49.2501 3.34295 9.87356
ltibia 93.805
lfoot -27.776 -18.2936
ltoes -43.6907
1291
root -1.83415 11.835 4.00835 18.3595 10.0491 -1.51003
lowerback 19.0567 1.74058 4.48303
upperback -0.257616 3.54683 2.1623
thorax -10.8829 1.49086 -1.15703
lowerneck -11.0201 0.835612 9.80196
upperneck 16.7135 -0.244695 -2.21597
head 6.93145 0.312938 -2.35213
rclavicle -1.78906e-014 -7.95139e-015
rhumerus 23.8492 15.8551 -77.1831
rradius 137.039
rwrist -47.7601
rhand -14.1932 -7.53731
rfingers 7.12502
rthumb 11.9428 -37.1766
lclavicle -1.78906e-014 -7.95139e-015
lhumerus 14.9817 -37.3057 78.7577
lradius 139.122
lwrist 23.9918
lhand -12.3903 29.0707
lfingers 7.12502
lthumb 13.6809 58.601
rfemur -82.4998 -7.10482 15.7369
rtibia 87.9358
rfoot -22.1708 -1.29212
rtoes -7.33765
lfemur -48.145 3.9808 9.99126
ltibia 94.2051
lfoot -27.8774 -17.4318
ltoes -44.1008
1292
root -1.78809 11.8368 4.02071 18.2989 7.99944 -2.17552
lowerback 18.771 1.47129 4.2018
upperback -0.235921 3.09604 2.0459
thorax -10.7237 1.29538 -0.992543
lowerneck -10.855 1.76182 10.7777
upperneck 17.2571 0.960681 -2.84568
head 7.16671 0.910909 -2.61259
rclavicle -1.90833e-014 -3.97569e-015
rhumerus 23.3206 17.0344 -77.8151
rradius 136.881
rwrist -47.5738
rhand -14.2602 -7.50291
rfingers 7.12502
rthumb 11.8782 -37.146
lclavicle -1.90833e-014 -3.97569e-015
lhumerus 15.1359 -36.7091 78.4634
lradius 138.371
lwrist 24.2777
lhand -13.4105 29.5544
lfingers 7.12502
lthumb 12.6975 59.1484
rfemur -82.7479 -5.97127 16.4907
rtibia 87.2876
rfoot -21.8543 -0.422536
rtoes -7.08712
lfemur -46.9649 4.68485 10.0915
ltibia 94.5879
lfoot -27.9199 -16.6337
ltoes -44.3851
